<?xml version="1.0" encoding="utf-8"?>
<!-- Generator: Adobe Illustrator 22.1.0, SVG Export Plug-In . SVG Version: 6.00 Build 0)  -->
<svg version="1.1" id="Layer_1" xmlns="http://www.w3.org/2000/svg" xmlns:xlink="http://www.w3.org/1999/xlink" x="0px" y="0px"
	 viewBox="0 0 402.9 229.8" style="enable-background:new 0 0 402.9 229.8;" xml:space="preserve">
<style type="text/css">
	.st0{fill:#213976;}
	.st1{fill:#202D57;}
</style>
<g>
	<g>
		<path class="st0" d="M321.2,195.3c-0.6,0-1.1,0.2-1.5,0.6c-0.4,0.4-0.6,1.1-0.6,2.1v14.8c0,1,0.2,1.7,0.6,2.1
			c0.4,0.4,0.9,0.6,1.5,0.6s1.1-0.2,1.5-0.6c0.4-0.4,0.6-1.1,0.6-2.1V198c0-1-0.2-1.7-0.6-2.1C322.3,195.5,321.8,195.3,321.2,195.3z
			"/>
		<path class="st0" d="M310.9,172.5h-1.2v5.4h1c0.5,0,0.9-0.1,1.1-0.4c0.3-0.3,0.4-0.8,0.4-1.5v-1.7c0-0.6-0.1-1.1-0.3-1.4
			C311.6,172.6,311.3,172.5,310.9,172.5z"/>
		<path class="st0" d="M294,178.1c0.2-0.2,0.3-0.7,0.3-1.3v-2.6c0-0.6-0.1-1.1-0.3-1.3c-0.2-0.2-0.5-0.4-0.9-0.4h-1.2v6h1.2
			C293.4,178.5,293.7,178.4,294,178.1z"/>
		<polygon class="st0" points="348.8,173.1 347.6,182 350.1,182 		"/>
		<path class="st0" d="M329.4,185.3c0.4,0,0.7-0.1,1-0.4c0.2-0.3,0.4-0.7,0.4-1.3V174c0-0.6-0.1-1.1-0.4-1.4c-0.2-0.3-0.6-0.4-1-0.4
			c-0.4,0-0.7,0.1-1,0.4c-0.2,0.3-0.4,0.7-0.4,1.4v9.5c0,0.6,0.1,1.1,0.4,1.3C328.7,185.2,329,185.3,329.4,185.3z"/>
		<path class="st0" d="M393.1,162.6H292.8c-1.4,0-2.6,0.5-3.5,1.4l-33.3,26.4c-0.3,0.2-0.6,0.4-0.9,0.7l0,0v0
			c-0.8,0.9-1.4,2-1.4,3.3c0,1.3,0.5,2.5,1.4,3.3v0l0,0c0.3,0.3,0.6,0.5,0.9,0.7l33.3,26.4c0.9,0.9,2.1,1.4,3.5,1.4h100.2
			c2.7,0,4.9-2.2,4.9-4.9v-54C398,164.8,395.8,162.6,393.1,162.6z M385.1,170h4.1c1.3,0,2.3,0.4,2.9,1.1c0.6,0.7,1,1.8,1,3.3v8.9
			c0,1.4-0.3,2.5-1,3.3c-0.6,0.7-1.6,1.1-2.9,1.1h-4.1V170z M376.7,170h7v2.5h-4.5v4.9h3.5v2.5h-3.5v5.2h4.5v2.5h-7V170z
			 M367.4,182.3h2.4v1.3c0,0.6,0.1,1.1,0.4,1.3c0.2,0.3,0.6,0.4,1,0.4c0.4,0,0.7-0.1,1-0.4c0.2-0.3,0.4-0.7,0.4-1.3
			c0-0.6-0.1-1.1-0.4-1.6c-0.3-0.5-0.6-0.9-0.9-1.3c-0.4-0.4-0.8-0.8-1.2-1.2c-0.4-0.4-0.8-0.9-1.2-1.3c-0.4-0.5-0.7-1-0.9-1.7
			c-0.2-0.6-0.4-1.4-0.4-2.2c0-1.4,0.3-2.5,0.9-3.3c0.6-0.8,1.6-1.1,2.8-1.1c1.3,0,2.2,0.4,2.8,1.1c0.6,0.8,1,1.9,1,3.3v0.6h-2.4
			V174c0-0.6-0.1-1.1-0.3-1.4c-0.2-0.3-0.5-0.4-1-0.4c-0.4,0-0.7,0.1-0.9,0.4c-0.2,0.3-0.3,0.7-0.3,1.4c0,0.6,0.1,1.1,0.4,1.6
			c0.2,0.5,0.6,0.9,0.9,1.3c0.4,0.4,0.8,0.8,1.2,1.2c0.4,0.4,0.8,0.9,1.2,1.3c0.4,0.5,0.7,1,0.9,1.7c0.2,0.6,0.4,1.4,0.4,2.2
			c0,1.4-0.3,2.5-1,3.3c-0.7,0.8-1.6,1.1-2.9,1.1c-1.3,0-2.2-0.4-2.9-1.1c-0.6-0.8-1-1.9-1-3.3V182.3z M354.9,170h2.6v15.1h4.2v2.5
			h-6.8V170z M347.1,170h3.8l2.6,17.6h-2.6l-0.4-3.2h-3.2l-0.4,3.2h-2.4L347.1,170z M335,170h3.2l2.6,10.6V170h2.3v17.6h-2.6
			l-3.2-12.8v12.8H335V170z M325.5,174.2c0-1.4,0.3-2.5,1-3.3c0.7-0.8,1.6-1.1,2.9-1.1c1.3,0,2.2,0.4,2.9,1.1c0.7,0.8,1,1.9,1,3.3
			v9.2c0,1.4-0.3,2.5-1,3.3c-0.7,0.8-1.6,1.1-2.9,1.1c-1.3,0-2.2-0.4-2.9-1.1c-0.7-0.8-1-1.9-1-3.3V174.2z M316.3,182.3h2.4v1.3
			c0,0.6,0.1,1.1,0.4,1.3c0.2,0.3,0.6,0.4,1,0.4c0.4,0,0.7-0.1,1-0.4c0.2-0.3,0.4-0.7,0.4-1.3c0-0.6-0.1-1.1-0.4-1.6
			c-0.3-0.5-0.6-0.9-0.9-1.3c-0.4-0.4-0.8-0.8-1.2-1.2c-0.4-0.4-0.8-0.9-1.2-1.3c-0.4-0.5-0.7-1-0.9-1.7c-0.3-0.6-0.4-1.4-0.4-2.2
			c0-1.4,0.3-2.5,0.9-3.3c0.6-0.8,1.6-1.1,2.8-1.1c1.3,0,2.2,0.4,2.9,1.1c0.6,0.8,0.9,1.9,0.9,3.3v0.6h-2.4V174
			c0-0.6-0.1-1.1-0.3-1.4c-0.2-0.3-0.5-0.4-0.9-0.4c-0.4,0-0.7,0.1-0.9,0.4c-0.2,0.3-0.3,0.7-0.3,1.4c0,0.6,0.1,1.1,0.4,1.6
			c0.2,0.5,0.6,0.9,0.9,1.3c0.4,0.4,0.8,0.8,1.2,1.2c0.4,0.4,0.8,0.9,1.2,1.3c0.4,0.5,0.7,1,0.9,1.7c0.2,0.6,0.4,1.4,0.4,2.2
			c0,1.4-0.3,2.5-1,3.3c-0.7,0.8-1.6,1.1-2.9,1.1c-1.3,0-2.2-0.4-2.9-1.1c-0.7-0.8-1-1.9-1-3.3V182.3z M298.3,170h7v2.5h-4.5v4.9
			h3.5v2.5h-3.5v5.2h4.5v2.5h-7V170z M289.2,170h3.8c1.3,0,2.3,0.4,2.9,1.1c0.6,0.7,0.9,1.8,0.9,3.3v2.3c0,1.4-0.3,2.5-0.9,3.3
			c-0.6,0.7-1.6,1.1-2.9,1.1h-1.2v6.6h-2.6V170z M278.1,200.3c-3.2,0-5.8-2.6-5.8-5.8c0-3.2,2.6-5.8,5.8-5.8c3.2,0,5.8,2.6,5.8,5.8
			C283.8,197.7,281.2,200.3,278.1,200.3z M301.1,200.9h-3.8V198c0-1-0.2-1.7-0.6-2.1c-0.4-0.4-0.9-0.6-1.5-0.6
			c-0.6,0-1.1,0.2-1.5,0.6c-0.4,0.4-0.6,1.1-0.6,2.1v14.8c0,1,0.2,1.7,0.6,2.1c0.4,0.4,0.9,0.6,1.5,0.6c0.6,0,1.1-0.2,1.5-0.6
			c0.4-0.4,0.6-1.1,0.6-2.1v-3.9h3.8v3.6c0,2.2-0.5,3.9-1.5,5.1c-1,1.2-2.5,1.8-4.4,1.8c-2,0-3.4-0.6-4.4-1.8
			c-1-1.2-1.5-2.9-1.5-5.1v-14.2c0-2.2,0.5-3.9,1.5-5.1c1-1.2,2.5-1.8,4.4-1.8c2,0,3.4,0.6,4.4,1.8c1,1.2,1.5,2.9,1.5,5.1V200.9z
			 M313.9,219h-10.6v-27.3h4v23.4h6.6V219z M312.4,187.6c0-0.1-0.1-0.2-0.1-0.3c0-0.1-0.1-0.2-0.1-0.4c0-0.1,0-0.3,0-0.6
			c0-0.2,0-0.5,0-0.9v-2.8c0-0.8-0.1-1.4-0.4-1.7c-0.3-0.3-0.7-0.5-1.3-0.5h-0.9v7.2H307V170h3.9c1.3,0,2.3,0.3,2.9,1
			c0.6,0.7,0.9,1.7,0.9,3.1v1.4c0,1.8-0.6,3-1.7,3.6c0.7,0.3,1.1,0.7,1.3,1.4c0.2,0.6,0.4,1.4,0.4,2.4v2.7c0,0.4,0,0.8,0,1.1
			c0,0.3,0.1,0.7,0.2,1H312.4z M327.3,212.4c0,2.2-0.5,3.9-1.6,5.1c-1,1.2-2.5,1.8-4.5,1.8c-2,0-3.5-0.6-4.5-1.8
			c-1-1.2-1.6-2.9-1.6-5.1v-14.2c0-2.2,0.5-3.9,1.6-5.1c1-1.2,2.5-1.8,4.5-1.8c2,0,3.5,0.6,4.5,1.8c1,1.2,1.6,2.9,1.6,5.1V212.4z
			 M340.8,195.6h-4.2V219h-4v-23.4h-4.2v-3.9h12.3V195.6z M355.6,219h-4.1v-11.7H347V219h-4v-27.3h4v11.7h4.5v-11.7h4.1V219z
			 M362.5,219h-4v-27.3h4V219z M363.2,170h2.6v17.6h-2.6V170z M378.2,219h-4.1l-5-19.8V219h-3.6v-27.3h5l4.1,16.3v-16.3h3.6V219z
			 M393.2,200.9h-3.8V198c0-1-0.2-1.7-0.6-2.1c-0.4-0.4-0.9-0.6-1.5-0.6c-0.6,0-1.1,0.2-1.5,0.6c-0.4,0.4-0.6,1.1-0.6,2.1v14.8
			c0,1,0.2,1.7,0.6,2.1c0.4,0.4,0.9,0.6,1.5,0.6c0.6,0,1.1-0.2,1.5-0.6c0.4-0.4,0.6-1.1,0.6-2.1v-5h-1.8v-3.9h5.6v8.7
			c0,2.2-0.5,3.9-1.5,5.1c-1,1.2-2.5,1.8-4.4,1.8c-2,0-3.4-0.6-4.4-1.8c-1-1.2-1.5-2.9-1.5-5.1v-14.2c0-2.2,0.5-3.9,1.5-5.1
			c1-1.2,2.5-1.8,4.4-1.8c2,0,3.4,0.6,4.4,1.8c1,1.2,1.5,2.9,1.5,5.1V200.9z"/>
		<path class="st0" d="M390.5,183.4v-9.2c0-0.6-0.1-1.1-0.4-1.3c-0.2-0.3-0.6-0.4-1-0.4h-1.5v12.6h1.5c0.4,0,0.7-0.1,1-0.4
			C390.4,184.5,390.5,184,390.5,183.4z"/>
	</g>
	<path class="st1" d="M279.1,200.2c0,0-1.1,6.9-7.9,10.4l-7.9-6.4L279.1,200.2z"/>
	<path class="st0" d="M158.9,214.7c0,0,2.1-1.3,5.8-3.6c3.7-2.3,9.1-5.5,15.6-9.3c3.3-1.9,6.8-3.9,10.6-5.9c3.8-2,7.8-4.1,12.2-5.9
		c2.2-0.9,4.4-1.8,7.2-2.2c0.7,0,1.5-0.2,2.6,0.3c0.6,0.2,1.3,0.8,1.5,1.6c0.3,0.8,0.2,1.4,0.1,2c-0.4,1.9-1.2,3-2,4.2
		c-0.8,1.1-1.6,2.1-2.3,3.1c-0.7,1-1.4,1.9-1.9,2.9c-1.2,2-2,4.2-1.9,5.8c0.1,0.8,0.3,1.4,0.8,2c0.4,0.6,1.2,1,2,1.4
		c1.7,0.8,3.9,1.1,6.1,1.2c4.4,0.2,9-0.5,13.3-1.4c8.7-1.9,16.7-4.8,23.4-7.7c6.7-2.8,12.1-5.6,15.9-7.6c3.8-2,5.9-3.3,5.9-3.3
		c2.4-1.4,5.3-0.5,6.5,1.9c1.3,2.4,0.4,5.5-2,6.9c-0.1,0-0.2,0.1-0.3,0.1l-0.1,0c0,0-2.3,1.1-6.3,3c-4,1.8-9.9,4.4-17,6.9
		c-7.2,2.5-15.6,5.1-25.1,6.5c-4.7,0.7-9.7,1.1-14.8,0.6c-2.6-0.3-5.2-0.8-7.9-2.1c-1.3-0.7-2.6-1.6-3.7-3.1c-1.1-1.4-1.6-3.3-1.6-5
		c0.1-3.5,1.6-6.2,3-8.5c0.7-1.1,1.6-2.2,2.4-3.3c0.8-1,1.6-1.9,2.3-2.8c0.7-0.9,1.3-1.9,1.5-2.4c0-0.1,0-0.1,0.1,0.1
		c0.1,0.2,0.3,0.4,0.3,0.4c0,0-0.4-0.1-0.9-0.1c-1.9,0.1-4.2,0.9-6.3,1.6c-4.3,1.5-8.4,3.3-12.3,5.1c-3.9,1.8-7.5,3.5-10.8,5.2
		c-6.7,3.3-12.2,6.2-16,8.3C161.1,213.5,158.9,214.7,158.9,214.7z"/>
	<g>
		<path class="st0" d="M254.5,91.5c-0.6,1.1-0.8,2.4-0.5,3.7c0.3,1.3,0.8,2.2,1.6,2.8c0.8,0.6,1.7,0.8,2.7,0.6
			c2.1-0.5,2.8-2.5,1.9-6c-0.3-1.4-0.7-2.4-1.1-2.8c-0.4-0.4-1-0.6-1.9-0.4C256.1,89.7,255.2,90.4,254.5,91.5z"/>
		<path class="st0" d="M354.3,69c-0.6,1.1-0.8,2.4-0.5,3.7c0.3,1.3,0.8,2.2,1.6,2.8c0.8,0.6,1.7,0.8,2.7,0.6c2.1-0.5,2.8-2.5,2-6
			c-0.3-1.4-0.7-2.4-1.1-2.8c-0.4-0.4-1-0.6-1.9-0.4C355.8,67.1,354.9,67.8,354.3,69z"/>
		<path class="st0" d="M267.2,134.8c-1.2-2.7-2.5-4.8-3.7-6.4c-1.3-1.6-2.7-2.2-4.2-1.9c-1.2,0.3-2,0.9-2.5,1.9
			c-0.5,1-0.6,2.2-0.3,3.6c0.4,1.6,1.1,3.7,2.3,6.2c1.2,2.6,2.5,4.8,3.7,6.8c1.3,2,2.9,2.7,4.7,2.3c2.3-0.5,3.2-2.3,2.5-5.2
			C269.3,139.9,268.5,137.5,267.2,134.8z"/>
		<path class="st0" d="M112.9,112.6c-1.2-1-2.6-1.4-3.9-1.1c-1.4,0.3-2.3,1-2.7,2.2c-0.3,0.8-0.2,2.4,0.3,4.7
			c1.4,6.2,2.5,10.3,3.4,12.3c0.8,1.9,2.2,2.7,4,2.2c1.9-0.4,3.2-1.6,3.8-3.4c0.6-1.9,0.6-4.3-0.1-7.4
			C116.6,117.4,115,114.3,112.9,112.6z"/>
		<path class="st0" d="M403.7,122.2c-0.7-3.3-2.6-6.2-5.3-8c-0.1-0.1-0.2-0.1-0.3-0.2l-3.2-12.2l0-0.1c-1.2-4.4-2.6-7.6-4.3-10.1
			c-1.2-1.8-2.7-3.4-4.5-4.7c0.1-0.1,0.1-0.1,0.2-0.2c2.4-2.2,4.3-4.8,5.6-7.7c1.6-3.7,2.1-7.3,1.3-10.8c-0.9-3.9-3.4-7-6.7-8.5
			c-0.1-0.4-0.2-1-0.4-1.5l-1.2-5.8l0-0.1c-0.9-4.2-2.3-7.5-4.1-10.1c-2.1-3-5.1-5.3-8.8-7c-5.7-2.5-12.1-3-18.9-1.5
			c-6.8,1.5-13,4.7-18.5,9.3l-0.1,0.1c-1.4,1.2-2.6,2.5-3.7,3.9c-1.2-0.9-2.6-1.7-4-2.3l-0.1,0c-4.8-2.1-10-2.6-15.6-1.3
			c-3.4,0.8-6.4,2.1-9,4c-2.3-0.8-4.7-0.9-7.2-0.4c-1.9,0.4-3.9,1.3-7.1,2.9c-2.4,1.3-5,2.7-7.5,4.3c-2.7,1.7-4.6,3.1-6,4.4
			c-0.7-0.4-1.5-0.8-2.3-1.1c-5.7-2.5-12.1-3-18.9-1.5c-6.8,1.5-13,4.7-18.5,9.3l-0.1,0.1c-1.4,1.2-2.6,2.5-3.7,3.9
			c-1.2-0.9-2.6-1.7-4-2.3l-0.1,0c-4.8-2.1-10-2.6-15.6-1.3c-3.4,0.8-6.4,2.1-9,4c-2.3-0.8-4.7-0.9-7.2-0.4
			c-1.8,0.4-3.9,1.3-7.1,2.9c-2.4,1.3-5,2.7-7.6,4.3c-2.7,1.7-4.6,3.1-6,4.4c-0.7-0.4-1.5-0.8-2.3-1.2c-5.7-2.5-12.1-3-18.9-1.5
			c-6.8,1.5-13,4.7-18.5,9.3l-0.1,0.1c-1.1,0.9-2.1,1.9-2.9,3c-0.2-0.1-0.4-0.2-0.6-0.4c-5.7-3.4-12-4.4-18.2-3
			c-0.5,0.1-1.1,0.3-1.6,0.4l-0.4-1.9c-0.9-4.6-3.5-7.1-5.5-8.4c-2.8-1.8-6.2-2.4-9.6-1.6c-2.9,0.7-6.1,1.8-9.7,3.5
			c-3.6,1.7-6.5,3.3-8.9,5.1l-0.1,0.1c-7,5.2-9.8,10.9-8.4,17c0.8,3.4,2.7,6.4,5.5,8.3c0.8,0.6,1.7,1,2.6,1.4l2.3,10.4
			c1.2,5.2,1.9,9,2.2,11.3c0.3,2.2,0.3,3.5,0.3,4.2l0,0.1c-0.1,1.5,0,2.9,0.3,4.2c1.3,5.8,6.9,10.8,15.2,8.9
			c1.3-0.3,2.5-0.7,3.6-1.2c2.4,0.7,4.6,1.1,6.8,1.3c3.4,0.3,7,0,10.8-0.8l0,0c7.8-1.7,14.2-5.7,19-11.7c1.3,0.9,2.7,1.7,4.2,2.3
			c2.9,1.2,6,1.7,9.4,1.6c-1.4,3.4-1,6.5-0.7,8.1c0.6,2.7,1.9,5,3.8,6.7c0.6,0.5,1.2,1,2,1.5c0.1,0.4,0.2,0.8,0.3,1.3
			c0.6,2.8,1.1,5.5,1.5,8.2c-0.7,1.1-1.2,2-1.6,3c-0.9,2.4-1.1,4.9-0.6,7.5c1,4.5,4.8,9.7,12.5,10.5c3.3,0.4,7.2,0,12.5-1.2l0.1,0
			c4-0.9,7.6-2.2,10.9-3.9c0.4-0.2,0.8-0.4,1.2-0.7c3.4,0.6,7.6,0.2,14.1-1.2l0.1,0c5.4-1.2,9.4-2.7,12.4-4.7
			c0.2-0.2,0.5-0.3,0.7-0.5c0.2,0,0.4,0.1,0.7,0.1c3.7,0.6,7.8,0.3,12.6-0.7l0.1,0c8.5-1.9,13.3-5,15.9-8.3c5.8,2.1,12.1,2.4,19,0.8
			l0.1,0c8.7-1.9,15.9-6.3,21.5-13c0.5-0.6,1-1.3,1.5-1.9c0.5,0.3,1,0.7,1.6,1c7,4,15,5.1,23.9,3.1l0.1,0
			c7.6-1.7,14.1-5.3,19.4-10.7c1.8,1.3,4,2.2,6.5,2.6c3.4,0.6,7.4,0.4,12.5-0.8l0.1,0c5.8-1.3,9.8-2.8,12.9-4.6
			c0.4-0.2,0.7-0.5,1.1-0.7c0.3,0.1,0.5,0.1,0.8,0.2c3.1,0.6,6.8,0.3,12-0.8l0.2,0c6.5-1.5,10.8-2.9,13.8-4.7
			C402.3,134.3,405.1,128.4,403.7,122.2z M129,131.6c-3.3,4.2-7.8,7-13.3,8.2c-2.7,0.6-5.3,0.8-7.6,0.6c-2.3-0.2-5-0.8-8-1.9
			c-0.4-0.1-0.8-0.2-1-0.1c-0.3,0.1-1,0.5-2.3,1.3c-0.6,0.4-1.4,0.7-2.3,0.9c-1.6,0.4-2.6,0-2.8-1c-0.1-0.3-0.1-0.7-0.1-1.2
			c0.1-1.8,0-4-0.4-6.6c-0.4-2.6-1.2-6.6-2.4-12l-2.5-10.9c-0.6-2.7-1.1-4.4-1.5-5c-0.4-0.6-1.1-1-2.1-1.2c-1.5-0.3-2.6-0.6-3.2-1.1
			c-0.7-0.4-1.1-1.1-1.3-2c-0.4-1.8,1.1-3.9,4.5-6.4c1.8-1.4,4.2-2.7,7.1-4.1c2.9-1.4,5.4-2.3,7.6-2.8c1.4-0.3,2.2,0.3,2.6,1.9
			l3,15.5c0.1,0.4,0.1,0.7,0.2,0.9c0.1,0.5,0.3,0.7,0.7,0.7c0.2,0,0.6-0.5,1.3-1.4c2.5-3.2,5.6-5.2,9.3-6.1
			c3.7-0.8,7.2-0.2,10.6,1.8c4.3,2.5,7,6.5,8.2,11.8C135.2,119,133.7,125.7,129,131.6z M337.1,54.9c0.7-1.5,1.8-2.9,3.4-4.2
			c4.2-3.6,8.9-6,14-7.1c4.6-1,8.7-0.8,12.4,0.8c2,0.9,3.4,2,4.5,3.4c1,1.4,1.9,3.5,2.5,6.3l1.2,5.9c0.9,4.1,1.8,6.6,2.7,7.7
			c0.4,0.5,0.8,0.8,1.1,0.9c0.3,0.1,0.9,0.1,1.8,0.1c0.9-0.1,1.4,0.4,1.6,1.4c0.3,1.3,0.1,2.7-0.6,4.3c-0.7,1.6-1.8,3-3.1,4.3
			c-1.7,1.6-3.6,2.6-5.8,3.1c-2.8,0.6-5.1,0.2-7.2-1.4c-0.7-0.6-1.3-0.8-1.8-0.7c-0.5,0.1-1.1,0.6-1.9,1.5c-2.2,2.5-5,4.1-8.3,4.9
			c-3.4,0.8-6.4,0.7-8.8-0.3c-1.6-0.7-3-1.7-4.2-3c-1.2-1.4-1.9-2.9-2.3-4.6c-0.6-2.7-0.1-5.4,1.7-8c2.7-4.1,7.5-6.9,14.3-8.5
			c1.5-0.3,2.4-0.7,2.8-1.1c0.3-0.4,0.4-1.1,0.1-2.2c-0.6-2.8-1.4-4.7-2.2-5.8c-0.9-1.1-1.9-1.5-3.3-1.2c-0.8,0.2-1.4,0.6-1.9,1.2
			c-0.5,0.6-1.1,1.7-1.7,3.1c-1.6,3.9-3.6,6.1-6.2,6.7c-1.3,0.3-2.4,0.1-3.4-0.4c-1-0.6-1.6-1.5-1.9-2.7
			C336.2,57.7,336.4,56.3,337.1,54.9z M237.3,77.4c0.7-1.5,1.9-2.9,3.4-4.2c4.2-3.6,8.9-6,14-7.1c4.6-1,8.7-0.7,12.4,0.8
			c2,0.9,3.4,2,4.5,3.4c1,1.4,1.9,3.5,2.5,6.3l1.2,5.9c0.9,4.1,1.8,6.6,2.7,7.7c0.4,0.5,0.8,0.8,1.1,0.9c0.3,0.1,0.9,0.1,1.7,0.1
			c0.9-0.1,1.4,0.4,1.6,1.4c0.3,1.3,0.1,2.7-0.6,4.3c-0.7,1.6-1.8,3-3.1,4.3c-1.7,1.6-3.6,2.6-5.8,3.1c-2.8,0.6-5.1,0.2-7.2-1.4
			c-0.7-0.6-1.3-0.8-1.8-0.7c-0.5,0.1-1.1,0.6-1.9,1.5c-2.2,2.5-5,4.1-8.3,4.9c-3.4,0.8-6.4,0.7-8.8-0.3c-1.6-0.7-3-1.7-4.2-3.1
			c-1.2-1.4-1.9-2.9-2.3-4.6c-0.6-2.7-0.1-5.4,1.7-8c2.7-4.1,7.5-6.9,14.3-8.5c1.5-0.3,2.4-0.7,2.8-1.1c0.3-0.4,0.4-1.1,0.1-2.2
			c-0.6-2.8-1.4-4.7-2.2-5.9c-0.9-1.1-1.9-1.5-3.3-1.2c-0.8,0.2-1.4,0.6-1.9,1.2c-0.5,0.6-1.1,1.7-1.7,3.1c-1.6,3.9-3.6,6.1-6.2,6.7
			c-1.3,0.3-2.4,0.1-3.4-0.4c-1-0.6-1.6-1.5-1.9-2.7C236.4,80.3,236.6,78.9,237.3,77.4z M180.2,89.2c0.8-0.9,2.5-2.1,5.1-3.8
			c2.3-1.5,4.6-2.8,6.8-3.9c2.2-1.1,3.7-1.8,4.6-2c0.8-0.2,1.5,0,2.2,0.4c0.7,0.5,1.1,1.1,1.3,1.9c0,0.1,0.1,0.4,0.2,1
			c0,0.2,0.1,0.4,0.1,0.6c0.3,1.3,1,1.8,2,1.5c0.6-0.1,1.2-0.8,1.7-2c1.5-3.8,4.4-6.1,8.7-7.1c3.3-0.7,6.3-0.5,9.1,0.7
			c1.9,0.9,3.4,2,4.4,3.6c1,1.5,2,3.9,2.9,7.1l3.7,13.7c0.3,1,0.6,1.8,1,2.2c0.4,0.4,1.4,1.2,3.1,2.3c0.5,0.3,0.8,0.9,1,1.6
			c0.4,1.7-0.4,3.2-2.3,4.3c-1.9,1.2-5.5,2.3-10.9,3.5c-3.6,0.8-6.3,1.1-7.9,0.8c-1.7-0.3-2.7-1.2-3-2.7c-0.1-0.5-0.1-0.9,0-1.2
			c0.1-0.3,0.5-1,1.2-2.2c0.8-1.3,0.5-5.1-0.9-11.4c-0.8-3.6-1.8-6.2-3.1-7.7c-1-1.2-2.4-1.6-4.2-1.2c-1.8,0.4-2.8,1.2-3.2,2.5
			c-0.4,1.3-0.3,3.4,0.4,6.4l1.8,7.8c0.4,1.5,0.7,2.6,1,3.1c0.3,0.5,1.2,1.5,2.7,2.9c0.4,0.4,0.7,0.9,0.8,1.5
			c0.3,1.5-0.5,2.9-2.5,4.2c-2,1.2-5.3,2.3-9.8,3.4c-7.3,1.6-11.3,1-12-2.1c-0.1-0.6-0.1-1.1,0-1.5c0.2-0.4,0.6-1,1.3-1.8
			c0.6-0.7,0.9-1.3,0.9-2c0-0.7-0.2-2.3-0.6-4.9c-0.5-3-1.1-6.2-1.9-9.5c-0.4-1.8-0.8-3-1.2-3.5c-0.4-0.5-1.4-1-2.8-1.5
			c-1.3-0.5-2-1.2-2.3-2.2C179.1,91.1,179.4,90.1,180.2,89.2z M154,131.2c-3.4,0.8-6.4,0.7-8.8-0.3c-1.6-0.7-3-1.7-4.2-3.1
			c-1.2-1.4-1.9-2.9-2.3-4.6c-0.6-2.7-0.1-5.4,1.7-8c2.7-4.1,7.5-6.9,14.3-8.5c1.5-0.3,2.4-0.7,2.8-1.1c0.3-0.4,0.4-1.1,0.1-2.2
			c-0.6-2.8-1.4-4.7-2.2-5.8c-0.9-1.1-1.9-1.5-3.3-1.2c-0.8,0.2-1.4,0.6-1.9,1.2c-0.5,0.6-1.1,1.7-1.7,3.1c-1.6,3.9-3.6,6.1-6.2,6.7
			c-1.3,0.3-2.4,0.1-3.4-0.4c-1-0.6-1.6-1.5-1.9-2.7c-0.3-1.3-0.1-2.6,0.7-4.1c0.7-1.5,1.9-2.9,3.4-4.2c4.2-3.6,8.9-6,14-7.1
			c4.6-1,8.7-0.8,12.4,0.8c2,0.9,3.4,2,4.5,3.4c1,1.4,1.9,3.5,2.5,6.3l1.2,5.9c0.9,4.1,1.8,6.6,2.7,7.7c0.4,0.5,0.8,0.8,1.1,0.9
			c0.3,0.1,0.9,0.1,1.7,0.1c0.9-0.1,1.4,0.4,1.6,1.4c0.3,1.3,0.1,2.7-0.6,4.3c-0.7,1.6-1.8,3-3.1,4.3c-1.7,1.6-3.6,2.6-5.8,3.1
			c-2.8,0.6-5.2,0.2-7.2-1.4c-0.7-0.6-1.3-0.8-1.8-0.7c-0.5,0.1-1.1,0.6-1.9,1.5C160.1,128.8,157.3,130.4,154,131.2z M230.9,165.5
			c-3.5,0.8-6.4,1-8.7,0.6c-2.3-0.4-3.6-1.2-4-2.6c-0.1-0.5-0.1-0.9-0.1-1.3c0.1-0.3,0.4-1.2,1-2.5c0.6-1.3,0.2-4.9-1.2-11
			c-0.8-3.5-1.6-6-2.4-7.2c-0.9-1.5-2.3-2.1-4-1.7c-0.9,0.2-1.6,0.6-2.1,1.3c-0.5,0.7-0.8,1.5-0.9,2.3c0,1,0.4,3.5,1.3,7.6
			c1.1,4.4,1.8,7,2.2,7.9c0.4,0.9,1.4,2.1,2.9,3.5c0.4,0.3,0.6,0.8,0.7,1.4c0.7,3.1-3,5.6-11.2,7.5c-4.9,1.1-8.3,1.5-10.2,1.1
			c-1.5-0.3-2.4-1.1-2.7-2.6c-0.1-0.7-0.2-1.1-0.1-1.4c0.1-0.3,0.6-1,1.3-2.2c0.4-0.7,0.7-1.3,0.8-1.8c0.1-0.5,0-1.4-0.2-2.7
			c-0.5-2.9-1-5.9-1.7-8.8c-1.2-5.1-3.1-7.4-5.7-6.8c-2,0.4-2.9,1.8-2.8,4.1c0.2,2.1,0.7,5.1,1.5,9c0.7,2.9,1.1,4.8,1.5,5.6
			c0.3,0.9,0.9,1.7,1.6,2.6c0.9,1,1.4,1.8,1.6,2.5c0.4,1.7-0.5,3.2-2.8,4.4c-2.4,1.3-5.2,2.3-8.3,3c-4,0.9-7.1,1.3-9.1,1
			c-2-0.2-3.2-1-3.5-2.4c-0.1-0.5-0.1-1,0.1-1.4c0.2-0.4,0.6-1.1,1.3-2.1c0.9-1.3,1.3-3,1-4.9c-0.4-3.3-1.1-6.7-1.8-10.2
			c-0.6-2.5-1.1-4.2-1.6-5.1c-0.5-0.9-1.2-1.6-2.1-2c-0.9-0.4-1.5-0.8-1.8-1c-0.3-0.3-0.5-0.7-0.6-1.2c-0.4-1.8,0.7-3.5,3.2-5.1
			c6.1-3.9,10.8-6.2,14.1-7c1.5-0.3,2.5,0.6,3,2.7c0,0,0.1,0.3,0.2,0.7c0.1,0.4,0.1,0.8,0.2,1c0.3,1.4,0.9,2,1.7,1.8
			c0.4-0.1,1-0.8,1.7-2.2c1-1.9,2.5-3.6,4.5-5.1c1.9-1.4,4-2.4,6.3-2.9c4.4-1,7.8-0.1,10.2,2.7c0.9,1,1.6,1.5,2,1.4
			c0.3-0.1,0.9-0.7,1.7-2c2.7-4.1,6.2-6.6,10.5-7.6c3.4-0.8,6.4-0.5,8.9,0.9c2.7,1.4,4.5,4.1,5.4,8c0.2,0.8,0.5,2.3,0.9,4.3
			c0.1,0.7,0.5,2.8,1.3,6.2c0.5,2.2,0.8,3.8,1,4.6c0.1,0.6,0.2,1,0.2,1.2c0.4,1.7,1.2,3,2.6,4.1c0.8,0.6,1.3,1,1.5,1.3
			c0.2,0.2,0.3,0.5,0.4,1C242.4,161.1,238.8,163.7,230.9,165.5z M281.7,148.3c-4.1,4.9-9.4,8.1-15.8,9.6c-6.3,1.4-11.8,0.8-16.4-1.9
			c-4.6-2.6-7.5-6.7-8.7-12.3c-1.4-6.2-0.2-11.8,3.5-16.8c3.9-5.2,9.3-8.6,16.2-10.2c4.8-1.1,9.3-0.8,13.5,0.9c3,1.2,5.6,3,7.8,5.6
			c2.3,2.6,3.8,5.6,4.6,8.8C287.6,137.7,286,143.1,281.7,148.3z M285.7,96.4c-0.1-0.6-0.1-1.1,0-1.5c0.1-0.4,0.6-1,1.3-1.8
			c0.6-0.7,0.9-1.3,0.9-2c0-0.7-0.1-2.3-0.6-4.9c-0.5-3-1.1-6.2-1.9-9.5c-0.4-1.8-0.8-3-1.2-3.5c-0.4-0.5-1.3-1-2.9-1.5
			c-1.3-0.5-2-1.2-2.3-2.2c-0.2-1.1,0-2,0.8-2.9c0.8-0.9,2.5-2.1,5.1-3.8c2.3-1.5,4.6-2.8,6.8-3.9c2.2-1.1,3.7-1.8,4.6-2
			c0.8-0.2,1.5,0,2.2,0.4c0.7,0.5,1.1,1.1,1.3,1.9c0,0.1,0.1,0.4,0.2,1c0,0.2,0,0.4,0.1,0.6c0.3,1.3,0.9,1.8,2,1.5
			c0.6-0.1,1.2-0.8,1.7-1.9c1.5-3.8,4.4-6.1,8.7-7.1c3.3-0.7,6.3-0.5,9.1,0.7c1.9,0.9,3.4,2,4.4,3.6c1,1.5,2,3.9,2.9,7.1l3.7,13.7
			c0.3,1,0.6,1.8,1,2.2c0.4,0.4,1.4,1.2,3.1,2.3c0.5,0.3,0.8,0.9,1,1.6c0.4,1.7-0.4,3.2-2.3,4.3c-1.9,1.1-5.5,2.3-10.9,3.5
			c-3.6,0.8-6.3,1.1-7.9,0.8c-1.7-0.3-2.7-1.2-3-2.7c-0.1-0.5-0.1-0.9,0-1.2c0.1-0.3,0.5-1,1.2-2.2c0.8-1.3,0.5-5.1-0.9-11.4
			c-0.8-3.6-1.8-6.2-3.1-7.7c-1-1.2-2.4-1.6-4.3-1.2c-1.8,0.4-2.8,1.2-3.2,2.5c-0.4,1.3-0.3,3.4,0.4,6.4l1.8,7.8
			c0.3,1.5,0.7,2.6,1,3.1c0.3,0.5,1.2,1.5,2.7,2.9c0.4,0.4,0.7,0.9,0.8,1.5c0.4,1.5-0.5,2.9-2.5,4.2c-2,1.2-5.3,2.3-9.8,3.4
			C290.4,100.1,286.4,99.4,285.7,96.4z M330.3,137.3c-4.1,4.9-9.4,8.1-15.8,9.6c-6.3,1.4-11.8,0.8-16.4-1.9
			c-4.6-2.6-7.5-6.7-8.7-12.3c-1.4-6.2-0.2-11.8,3.5-16.8c3.9-5.2,9.3-8.6,16.2-10.2c4.8-1.1,9.3-0.8,13.5,0.9c3,1.2,5.6,3,7.8,5.6
			c2.3,2.6,3.8,5.6,4.6,8.8C336.1,126.7,334.6,132.1,330.3,137.3z M390.6,128.3c-1.9,1.1-5.5,2.3-10.9,3.5c-3.6,0.8-6.3,1.1-7.9,0.8
			c-1.7-0.3-2.7-1.2-3-2.7c-0.1-0.5-0.1-0.9,0-1.2c0.1-0.3,0.5-1,1.2-2.2c0.8-1.3,0.5-5.1-0.9-11.4c-0.8-3.6-1.8-6.2-3.1-7.7
			c-1-1.2-2.4-1.7-4.3-1.2c-1.8,0.4-2.8,1.2-3.2,2.5c-0.4,1.3-0.3,3.4,0.4,6.4l1.8,7.8c0.3,1.6,0.7,2.6,1,3.1
			c0.3,0.5,1.2,1.5,2.7,2.9c0.4,0.4,0.7,0.9,0.8,1.5c0.3,1.6-0.5,2.9-2.5,4.2c-2,1.2-5.3,2.3-9.8,3.4c-7.3,1.6-11.3,1-12-2.1
			c-0.1-0.6-0.1-1.1,0-1.5c0.2-0.4,0.6-1,1.3-1.8c0.6-0.7,0.9-1.3,0.9-2c0-0.7-0.1-2.3-0.6-4.9c-0.5-3-1.1-6.2-1.9-9.5
			c-0.4-1.8-0.8-3-1.2-3.5c-0.4-0.5-1.4-1-2.9-1.5c-1.3-0.5-2-1.2-2.3-2.2c-0.2-1,0-2,0.8-2.9c0.8-0.9,2.5-2.2,5.1-3.8
			c2.3-1.5,4.6-2.8,6.8-3.9c2.2-1.1,3.7-1.8,4.6-2c0.8-0.2,1.5,0,2.2,0.4c0.7,0.5,1.1,1.1,1.3,1.9c0,0.1,0.1,0.4,0.2,1
			c0,0.2,0,0.4,0.1,0.6c0.3,1.3,1,1.8,2,1.5c0.6-0.1,1.2-0.8,1.7-1.9c1.5-3.8,4.4-6.1,8.7-7.1c3.3-0.7,6.3-0.5,9.1,0.7
			c1.9,0.9,3.4,2,4.5,3.6c1,1.5,2,3.9,2.9,7.1l3.7,13.7c0.3,1,0.6,1.8,1,2.2c0.4,0.4,1.4,1.2,3.1,2.3c0.5,0.3,0.8,0.9,1,1.6
			C393.3,125.7,392.5,127.1,390.6,128.3z"/>
		<path class="st0" d="M315.8,123.8c-1.2-2.7-2.5-4.8-3.7-6.4c-1.3-1.6-2.7-2.2-4.2-1.9c-1.2,0.3-2,0.9-2.5,1.9
			c-0.5,1-0.6,2.2-0.3,3.6c0.4,1.6,1.1,3.7,2.3,6.2c1.2,2.6,2.4,4.8,3.7,6.8c1.3,2,2.9,2.7,4.7,2.3c2.3-0.5,3.2-2.3,2.5-5.2
			C317.9,129,317,126.5,315.8,123.8z"/>
		<path class="st0" d="M159.3,112.4c-0.4-0.4-1-0.6-1.9-0.4c-1.2,0.3-2,1-2.7,2.1c-0.6,1.1-0.8,2.4-0.5,3.7c0.3,1.3,0.8,2.2,1.6,2.8
			c0.8,0.6,1.7,0.8,2.7,0.6c2.1-0.5,2.8-2.5,1.9-6C160.1,113.7,159.7,112.8,159.3,112.4z"/>
	</g>
	<path class="st0" d="M193.2,182.7c-0.4,0.2-0.8,0.5-1.2,0.7c-3.3,1.7-6.9,3-10.9,3.9l-0.1,0c-0.5,0.1-1,0.2-1.5,0.3
		c-18,17.8-42.7,28.8-70,28.8c-54.9,0-99.4-44.5-99.4-99.4c0-39.6,23.1-73.7,56.6-89.7c-6.2,13-9.7,27.5-9.7,42.8
		c0,25.1,9.3,48.1,24.7,65.6c0-0.7-0.1-1.7-0.3-2.9c-0.3-2.3-1.1-6.1-2.2-11.3L77,111.1c-1-0.4-1.8-0.9-2.6-1.4
		c-2.8-1.9-4.8-4.9-5.5-8.3c-0.7-3.1-0.3-6.1,1.1-8.9c-1.8-7.1-2.8-14.6-2.8-22.3c0-13.5,2.9-26.4,8.7-38.5L88.1,6L62.5,18.3
		c-18.4,8.8-33.9,22.5-45,39.6C6.2,75.5,0.2,96,0.2,117c0,60.3,49.1,109.4,109.4,109.4c21.1,0,41.5-6,59.1-17.3
		c10.9-7,20.5-15.9,28.2-26.2C195.6,183,194.3,182.9,193.2,182.7z"/>
	<path class="st0" d="M157,169.5c0.3-0.6,0.7-1.3,1.1-2c-0.4-2.6-0.9-5.3-1.5-8.1c0,0-0.1,0-0.1,0c-14.4,0-28-3.4-40-9.5
		c-3,0.5-5.9,0.7-8.7,0.4c-2.2-0.2-4.4-0.6-6.8-1.3c-1,0.5-2.1,0.8-3.3,1.1c16.5,12.1,36.8,19.3,58.8,19.3
		C156.7,169.5,156.9,169.5,157,169.5z"/>
</g>
</svg>
