<svg id="Layer_4" data-name="Layer 4" xmlns="http://www.w3.org/2000/svg" viewBox="0 0 727.47 128"><defs><style>.cls-1{fill:#fff;}.cls-2{fill:#109d58;}.cls-3{fill:#4285f3;}.cls-4{fill:#e94336;}.cls-5{fill:#fabb05;}</style></defs><title>logo2019</title><path class="cls-1" d="M367.17,33.2c0,7-2.1,12.6-6.2,16.7-4.7,4.9-10.9,7.4-18.4,7.4a25.12,25.12,0,0,1-18.4-7.5,25,25,0,0,1-7.6-18.7,25.78,25.78,0,0,1,26-26.2A26,26,0,0,1,352.87,7a20.11,20.11,0,0,1,7.8,5.6l-4.4,4.4c-3.3-4-7.9-6-13.7-6a19.48,19.48,0,0,0-19.5,20.1,19.48,19.48,0,0,0,19.5,20.1,19.07,19.07,0,0,0,14-5.6c2.4-2.4,3.8-5.8,4.2-10.1h-18.2v-6h24.3C367,30.7,367.17,32,367.17,33.2Zm6.3,23V6.1h15.3c7.7,0,13.9,2.3,18.5,7s6.9,10.7,6.9,18.1-2.3,13.5-6.9,18.1-10.8,7-18.5,7h-15.3ZM380,50h8.9c5.8,0,10.4-1.7,13.8-5s5.1-8,5.1-13.9-1.7-10.6-5.1-13.9-8-5-13.8-5H380Zm89-16.8c0,7-2.1,12.6-6.2,16.7-4.7,4.9-10.9,7.4-18.4,7.4A25.12,25.12,0,0,1,426,49.8a25,25,0,0,1-7.6-18.7,25.78,25.78,0,0,1,26-26.2A26,26,0,0,1,454.67,7a20.11,20.11,0,0,1,7.8,5.6l-4.4,4.4c-3.3-4-7.9-6-13.7-6a19.48,19.48,0,0,0-19.5,20.1,19.48,19.48,0,0,0,19.5,20.1,19.07,19.07,0,0,0,14-5.6c2.4-2.4,3.8-5.8,4.2-10.1h-18.2v-6h24.2A23.25,23.25,0,0,1,469,33.2Zm23.2,23V6.1h15.3c7.7,0,13.9,2.3,18.5,7s6.9,10.7,6.9,18.1-2.3,13.5-6.9,18.1-10.8,7-18.5,7h-15.3Zm6.4-6.2h8.9c5.8,0,10.4-1.7,13.8-5s5.1-8,5.1-13.9-1.7-10.6-5.1-13.9-8-5-13.8-5h-8.9ZM554,57.3c-5.2,0-9.4-1.7-12.6-5.2a18.64,18.64,0,0,1-4.9-13.1,19.16,19.16,0,0,1,4.7-12.9,15.31,15.31,0,0,1,12.1-5.4c5.1,0,9.2,1.7,12.2,5s4.6,7.7,4.6,13.3l-.1,1.2h-27.1c.2,3.5,1.3,6.2,3.5,8.2a10.5,10.5,0,0,0,7.5,3c4.6,0,7.7-2,9.4-5.9l5.7,2.4a15.46,15.46,0,0,1-5.5,6.7,16.35,16.35,0,0,1-9.5,2.7Zm9.2-22.4a8.69,8.69,0,0,0-2.7-5.6c-1.7-1.8-4.1-2.7-7.4-2.7a9.24,9.24,0,0,0-6.2,2.2,10.86,10.86,0,0,0-3.6,6h19.9Zm20.4,21.3-13.9-34.3h7l10.1,26.6h.1l10.2-26.6H604L590,56.2Zm30.7,0h-6.4V6.1h29.3v6.2h-22.8V28.8H635v6h-20.6V56.2Zm42.3,1.1c-5.2,0-9.4-1.7-12.6-5.2a18.64,18.64,0,0,1-4.9-13.1,19.16,19.16,0,0,1,4.7-12.9,15.45,15.45,0,0,1,12.1-5.4c5.1,0,9.2,1.7,12.2,5s4.6,7.7,4.6,13.3l-.1,1.2h-27.1c.2,3.5,1.3,6.2,3.5,8.2a10.5,10.5,0,0,0,7.5,3c4.6,0,7.7-2,9.4-5.9l5.7,2.4a15.46,15.46,0,0,1-5.5,6.7,16.57,16.57,0,0,1-9.5,2.7Zm9.2-22.4a8.69,8.69,0,0,0-2.7-5.6c-1.7-1.8-4.1-2.7-7.4-2.7a9.24,9.24,0,0,0-6.2,2.2,10.86,10.86,0,0,0-3.6,6h19.9Zm23.9,22.4a15.3,15.3,0,0,1-9.5-2.8,17,17,0,0,1-5.5-7l5.7-2.4c1.8,4.3,4.9,6.4,9.3,6.4a8.12,8.12,0,0,0,4.9-1.3,4.08,4.08,0,0,0,1.9-3.5c0-2.2-1.6-3.8-4.7-4.5l-6.9-1.7a16,16,0,0,1-6.2-3.2,7.59,7.59,0,0,1-2.9-6.3,8.68,8.68,0,0,1,4-7.4,16.22,16.22,0,0,1,9.6-2.8,15.78,15.78,0,0,1,8.1,2.1,11.34,11.34,0,0,1,5.1,5.9L697,31.1c-1.3-3-3.9-4.6-7.8-4.6a9,9,0,0,0-4.8,1.2,3.72,3.72,0,0,0-2,3.2c0,2,1.5,3.3,4.5,4l6.8,1.6c3.2.7,5.6,2,7.1,3.9a9.52,9.52,0,0,1,2.3,6.2,9.66,9.66,0,0,1-3.8,7.7C697,56.3,693.67,57.3,689.67,57.3Zm32.9-.5c-3.6,0-6.3-1-8.2-2.9s-2.8-4.6-2.8-8.1v-18h-6V21.9h6V11.4H718V21.9h8.4v5.9H718V45.3c0,3.7,1.5,5.6,4.6,5.6a6.24,6.24,0,0,0,2.9-.6l2.2,5.5a10.77,10.77,0,0,1-5.1,1Zm-389.5,66.5a18.82,18.82,0,0,1-10.7-3.6,16.13,16.13,0,0,1-6.8-10l5.9-2.4a13.19,13.19,0,0,0,4.3,7,10.8,10.8,0,0,0,7.3,2.8,11.63,11.63,0,0,0,7.2-2.2,7.13,7.13,0,0,0,3-6,7.67,7.67,0,0,0-3-6.5,31.06,31.06,0,0,0-9.4-4.2c-4.4-1.4-7.8-3.2-10.1-5.4a11.3,11.3,0,0,1-3.4-8.5,12.38,12.38,0,0,1,4.3-9.4c2.8-2.7,6.6-4,11.1-4a16.53,16.53,0,0,1,10.4,3.2,14.19,14.19,0,0,1,5.2,7l-5.9,2.4a8.56,8.56,0,0,0-3.1-4.4,10.86,10.86,0,0,0-12.7.1,6.17,6.17,0,0,0-2.6,5.1,5.78,5.78,0,0,0,2.4,4.7,24.6,24.6,0,0,0,7.1,3.5c2.5.8,4.5,1.6,6.2,2.3a22.09,22.09,0,0,1,5,3,12.33,12.33,0,0,1,3.9,4.6,14.35,14.35,0,0,1,1.3,6.4,13.84,13.84,0,0,1-1.5,6.5,11.65,11.65,0,0,1-4,4.5,20.73,20.73,0,0,1-5.4,2.6,21.31,21.31,0,0,1-6,.9Zm37.8,0c-5.2,0-9.4-1.7-12.6-5.2a18.64,18.64,0,0,1-4.9-13.1,19.16,19.16,0,0,1,4.7-12.9,15.31,15.31,0,0,1,12.1-5.4c5.1,0,9.2,1.7,12.2,5S387,99.4,387,105l-.1,1.2h-27.1c.2,3.5,1.3,6.2,3.5,8.2a10.5,10.5,0,0,0,7.5,3c4.6,0,7.7-2,9.4-5.9l5.7,2.4a15.46,15.46,0,0,1-5.5,6.7,16.14,16.14,0,0,1-9.5,2.7Zm9.3-22.4a8.69,8.69,0,0,0-2.7-5.6c-1.7-1.8-4.1-2.7-7.4-2.7a9.24,9.24,0,0,0-6.2,2.2,10.86,10.86,0,0,0-3.6,6h19.9Zm22.1,22.4a13.92,13.92,0,0,1-9.1-3.1,10.62,10.62,0,0,1-3.7-8.3,10.29,10.29,0,0,1,4.3-8.8,17.85,17.85,0,0,1,10.7-3.2,18.29,18.29,0,0,1,9.3,2.1v-1a8,8,0,0,0-2.6-6.1,9.47,9.47,0,0,0-6.4-2.3,9.69,9.69,0,0,0-5.1,1.3,6.76,6.76,0,0,0-3.1,3.6l-5.9-2.5a13.1,13.1,0,0,1,4.7-5.7c2.3-1.8,5.4-2.6,9.2-2.6a15.66,15.66,0,0,1,10.9,3.9c2.9,2.6,4.3,6.2,4.3,10.8v20.7h-6.2v-4.8h-.3C411,121.4,407.17,123.3,402.27,123.3Zm1-5.9a10.15,10.15,0,0,0,7.2-3,9.15,9.15,0,0,0,3.3-7c-1.8-1.5-4.5-2.2-8.2-2.2-3.1,0-5.5.7-7.1,2a6.1,6.1,0,0,0-2.4,4.8,4.51,4.51,0,0,0,2.2,4A9.4,9.4,0,0,0,403.27,117.4Zm35.2,5.9a15.3,15.3,0,0,1-9.5-2.8,17,17,0,0,1-5.5-7l5.7-2.4c1.8,4.3,4.9,6.4,9.3,6.4a8.12,8.12,0,0,0,4.9-1.3,4.08,4.08,0,0,0,1.9-3.5c0-2.2-1.6-3.8-4.7-4.5l-6.9-1.7a16,16,0,0,1-6.2-3.2,7.59,7.59,0,0,1-2.9-6.3,8.68,8.68,0,0,1,4-7.4,16.22,16.22,0,0,1,9.6-2.8,15.78,15.78,0,0,1,8.1,2.1,11.34,11.34,0,0,1,5.1,5.9l-5.6,2.3c-1.3-3-3.9-4.6-7.8-4.6a9,9,0,0,0-4.8,1.2,3.72,3.72,0,0,0-2,3.2c0,2,1.5,3.3,4.6,4l6.8,1.6c3.2.7,5.6,2,7.1,3.9a9.52,9.52,0,0,1,2.3,6.2,9.66,9.66,0,0,1-3.8,7.7,15,15,0,0,1-9.7,3ZM459.37,92a18.11,18.11,0,0,1,25.4,0,19.66,19.66,0,0,1,0,26.2,18.11,18.11,0,0,1-25.4,0,18.28,18.28,0,0,1-5-13.1A18.71,18.71,0,0,1,459.37,92Zm4.8,22a10.45,10.45,0,0,0,7.9,3.4A10.6,10.6,0,0,0,480,114a12.48,12.48,0,0,0,3.3-9,12.48,12.48,0,0,0-3.3-9,10.45,10.45,0,0,0-7.9-3.4,10.6,10.6,0,0,0-7.9,3.4,12.48,12.48,0,0,0-3.3,9Q460.87,110.7,464.17,114Zm36.3-26.1v4.8h.3a11.91,11.91,0,0,1,4.4-4.2,13.32,13.32,0,0,1,6.4-1.7c4.2,0,7.5,1.3,9.7,3.9s3.4,6.1,3.4,10.5v21h-6.4v-20c0-6.3-2.8-9.5-8.5-9.5a8,8,0,0,0-6.5,3.2,11.43,11.43,0,0,0-2.5,7.4v19h-6.4V87.9Zm76.6,34.3h-30.5v-6.4c9.1-9.2,15-15.2,17.6-18a47.85,47.85,0,0,0,4.6-5.8,9.37,9.37,0,0,0,1.2-4.9,7.09,7.09,0,0,0-2.4-5.3,9,9,0,0,0-6.4-2.3,8.35,8.35,0,0,0-5.9,2.1,10.5,10.5,0,0,0-2.9,4.6l-5.9-2.4a16.32,16.32,0,0,1,5-7.1,14.4,14.4,0,0,1,9.8-3.4,15.19,15.19,0,0,1,10.9,4.1,13,13,0,0,1,4.3,9.7c0,4.7-2.5,9.7-7.6,15l-14,14.1h22.2v6Zm36.9-6.1a17,17,0,0,1-27.8,0c-3.5-4.8-5.3-10.8-5.3-17.9s1.8-13.1,5.3-17.9a17,17,0,0,1,27.8,0c3.5,4.8,5.3,10.7,5.3,17.9S617.47,111.3,614,116.1Zm-14,1.1c3.8,0,6.9-1.8,9.2-5.4a24.62,24.62,0,0,0,3.5-13.5c0-5.5-1.2-10-3.5-13.5s-5.4-5.4-9.2-5.4a10.3,10.3,0,0,0-9.2,5.4c-2.3,3.6-3.4,8.1-3.4,13.5s1.1,9.9,3.4,13.5S596.17,117.2,600,117.2Zm39.7,5h-6.4V82.3L624,86.4l-2.5-5.5,14.1-6.6h4.1v47.9Z"/><path class="cls-1" d="M656.39,120.48l12.13-17-.15-.14A10.81,10.81,0,0,1,662.1,105a14.21,14.21,0,0,1-7.19-2,16,16,0,0,1-5.71-5.61A14.83,14.83,0,0,1,647,89.45a15.13,15.13,0,0,1,2.22-7.93,17,17,0,0,1,6-6,15.73,15.73,0,0,1,8.21-2.26A16,16,0,0,1,672,75.63a16.56,16.56,0,0,1,5.85,6,15.74,15.74,0,0,1,2.08,7.79,18.06,18.06,0,0,1-1.59,7.44,51.6,51.6,0,0,1-4.55,7.93l-12.62,19ZM668.7,98.3a10.33,10.33,0,0,0,3.83-3.74A9.82,9.82,0,0,0,674,89.38a9.94,9.94,0,0,0-1.42-5.25,10.33,10.33,0,0,0-3.83-3.74A10.51,10.51,0,0,0,663.44,79a10.45,10.45,0,0,0-9,5.11A10,10,0,0,0,653,89.38a9.9,9.9,0,0,0,1.41,5.18,10.45,10.45,0,0,0,9,5.11A10.61,10.61,0,0,0,668.7,98.3Z"/><path class="cls-2" d="M205.8,64.07c-1.7-1.5-3.79-2.35-5.72-3.45-12.3-7-24.64-13.86-36.92-20.84-10.37-5.9-14.21-17.16-9.67-27.31C158.12,2.12,172.05-4.19,185,3.23c19.44,11.12,39,22.06,58.48,33.08,5.38,3,10.8,6,16.14,9.11,12.5,7.28,15,23.2,5.25,33.18a28.85,28.85,0,0,1-8.85,5.71,4,4,0,0,0-.92,0c-6.52,1.82-12.5.33-18.21-3-4.35-2.5-8.71-5-13.11-7.39C217.8,70.7,212,67,205.8,64.07Z"/><path class="cls-3" d="M65.19,63.94q12.16,6.94,24.34,13.88c6.18,3.51,12.41,6.93,18.57,10.49,12.49,7.21,14.92,22.55,5.28,33a21.18,21.18,0,0,1-24.93,4.46c-10.27-5.35-20.29-11.2-30.39-16.87q-23.13-13-46.24-26.05C4.26,78.58,0,72.27,0,63.5,0,55,5.68,47.28,14.23,43.9a7.52,7.52,0,0,0,.79-.43,15.76,15.76,0,0,0,2.07-.16,21.51,21.51,0,0,1,15.4,2.39c3.62,2.06,7.25,4.09,10.89,6.12Z"/><path class="cls-4" d="M65.19,63.94,43.38,51.82c-3.64-2-7.27-4.06-10.89-6.12a21.51,21.51,0,0,0-15.4-2.39,15.76,15.76,0,0,1-2.07.16c4.47-2.59,8.92-5.23,13.41-7.77Q57.17,19.44,85.94,3.22c11.7-6.59,25.53-2.71,31.19,8.69a20.29,20.29,0,0,1-7.3,26.49C100.58,44.13,91,49.25,81.49,54.64Q73.33,59.27,65.19,63.94Z"/><path class="cls-5" d="M205.8,64.07c6.22,2.92,12,6.63,18,9.92,4.4,2.41,8.76,4.89,13.11,7.39,5.71,3.28,11.69,4.77,18.21,3a4,4,0,0,1,.92,0c-7.36,4.21-14.71,8.45-22.1,12.62q-24.4,13.8-48.86,27.53c-9.85,5.52-20,4.43-27.33-2.85a20.76,20.76,0,0,1,4.44-32.93C176.65,80.32,191.26,72.26,205.8,64.07Z"/></svg>